<?xml version="1.0" encoding="UTF-8" standalone="no"?>
<!-- Generator: Adobe Illustrator 19.2.1, SVG Export Plug-In . SVG Version: 6.00 Build 0)  -->

<svg
   xmlns:dc="http://purl.org/dc/elements/1.1/"
   xmlns:cc="http://creativecommons.org/ns#"
   xmlns:rdf="http://www.w3.org/1999/02/22-rdf-syntax-ns#"
   xmlns:svg="http://www.w3.org/2000/svg"
   xmlns="http://www.w3.org/2000/svg"
   xmlns:sodipodi="http://sodipodi.sourceforge.net/DTD/sodipodi-0.dtd"
   xmlns:inkscape="http://www.inkscape.org/namespaces/inkscape"
   version="1.1"
   id="Layer_1"
   x="0px"
   y="0px"
   viewBox="0 0 1000 1000"
   style="enable-background:new 0 0 1000 1000;"
   xml:space="preserve"
   inkscape:version="0.91 r13725"
   sodipodi:docname="search.svg"><metadata
     id="metadata11"><rdf:RDF><cc:Work
         rdf:about=""><dc:format>image/svg+xml</dc:format><dc:type
           rdf:resource="http://purl.org/dc/dcmitype/StillImage" /></cc:Work></rdf:RDF></metadata><defs
     id="defs9" /><sodipodi:namedview
     pagecolor="#ffffff"
     bordercolor="#666666"
     borderopacity="1"
     objecttolerance="10"
     gridtolerance="10"
     guidetolerance="10"
     inkscape:pageopacity="0"
     inkscape:pageshadow="2"
     inkscape:window-width="1501"
     inkscape:window-height="1304"
     id="namedview7"
     showgrid="false"
     inkscape:zoom="1.888"
     inkscape:cx="233.11065"
     inkscape:cy="540.16493"
     inkscape:window-x="0"
     inkscape:window-y="55"
     inkscape:window-maximized="0"
     inkscape:current-layer="Layer_1" /><style
     type="text/css"
     id="style3">
	.st0{fill:#666666;}
</style><path
     class="st0"
     d="M979.5,881.8L636,538.1c36.6-54.7,57.8-120.6,57.8-191.2C693.8,155.6,538.2,0.1,347,0.1  C155.4,0.2,0,155.6,0,346.9c0,191.4,155.4,346.9,346.9,346.9c70.4,0,136.4-21.2,191.2-57.7l343.5,343.7  c13.3,13.6,31.3,20.3,49.1,20.3c17.7,0,35.5-6.8,48.9-20.3C1006.8,952.7,1006.8,908.7,979.5,881.8z M83.2,346.9  c0-145.3,118.3-263.6,263.7-263.6c145.3,0,263.5,118.2,263.5,263.6S492.2,610.6,346.9,610.6C201.5,610.6,83.2,492.4,83.2,346.9z"
     id="path5"
     style="fill:#ffffff" /></svg>