<?xml version="1.0" encoding="UTF-8" standalone="no"?>
<!-- Generator: Adobe Illustrator 19.2.1, SVG Export Plug-In . SVG Version: 6.00 Build 0)  -->

<svg
   xmlns:dc="http://purl.org/dc/elements/1.1/"
   xmlns:cc="http://creativecommons.org/ns#"
   xmlns:rdf="http://www.w3.org/1999/02/22-rdf-syntax-ns#"
   xmlns:svg="http://www.w3.org/2000/svg"
   xmlns="http://www.w3.org/2000/svg"
   xmlns:sodipodi="http://sodipodi.sourceforge.net/DTD/sodipodi-0.dtd"
   xmlns:inkscape="http://www.inkscape.org/namespaces/inkscape"
   version="1.1"
   id="Layer_1"
   x="0px"
   y="0px"
   viewBox="0 0 1403.5 1000"
   style="enable-background:new 0 0 1403.5 1000;"
   xml:space="preserve"
   inkscape:version="0.91 r13725"
   sodipodi:docname="table-of-contents.svg"><metadata
     id="metadata43"><rdf:RDF><cc:Work
         rdf:about=""><dc:format>image/svg+xml</dc:format><dc:type
           rdf:resource="http://purl.org/dc/dcmitype/StillImage" /></cc:Work></rdf:RDF></metadata><defs
     id="defs41" /><sodipodi:namedview
     pagecolor="#ffffff"
     bordercolor="#666666"
     borderopacity="1"
     objecttolerance="10"
     gridtolerance="10"
     guidetolerance="10"
     inkscape:pageopacity="0"
     inkscape:pageshadow="2"
     inkscape:window-width="2560"
     inkscape:window-height="1471"
     id="namedview39"
     showgrid="false"
     inkscape:zoom="0.236"
     inkscape:cx="701.75"
     inkscape:cy="500"
     inkscape:window-x="0"
     inkscape:window-y="55"
     inkscape:window-maximized="1"
     inkscape:current-layer="Layer_1" /><style
     type="text/css"
     id="style25">
	.st0{fill:#666666;}
</style><g
     id="g27"
     style="fill:#ffffff"><path
       class="st0"
       d="M1298.2,210H479.3c-58.2,0-105.1-47-105.1-105.1c0-58.2,46.9-105.1,105.1-105.1h818.9   c58.2,0,105.3,47,105.3,105.1S1356.5,210,1298.2,210z M1403.5,499.6c0-58.2-47-105.1-105.3-105.1H479.3   c-58.2,0-105.1,47-105.1,105.1s46.9,105.1,105.1,105.1h818.9C1356.5,604.8,1403.5,557.8,1403.5,499.6z M1403.5,894.4   c0-58.1-47-105.1-105.3-105.1H479.3c-58.2,0-105.1,47-105.1,105.1c0,58.2,46.9,105.1,105.1,105.1h818.9   C1356.5,999.5,1403.5,952.6,1403.5,894.4z"
       id="path29"
       style="fill:#ffffff" /><path
       class="st0"
       d="M210.5,105.1c0,58.1-47.2,105.4-105.3,105.4C47,210.5,0,163.3,0,105.1S47-0.4,105.3-0.4   C163.4-0.2,210.5,46.8,210.5,105.1z"
       id="path31"
       style="fill:#ffffff" /><path
       class="st0"
       d="M210.5,105.1c0,58.1-47.2,105.4-105.3,105.4C47,210.5,0,163.3,0,105.1S47-0.4,105.3-0.4   C163.4-0.2,210.5,46.8,210.5,105.1z"
       id="path33"
       style="fill:#ffffff" /><path
       class="st0"
       d="M210.5,499.6c0,58.2-47.2,105.4-105.3,105.4C47,605,0,557.8,0,499.6s47-105.4,105.3-105.4   C163.4,394.3,210.5,441.5,210.5,499.6z"
       id="path35"
       style="fill:#ffffff" /><path
       class="st0"
       d="M210.5,894.2c0,58.2-47.2,105.4-105.3,105.4C47,999.6,0,952.5,0,894.2c0-58.1,47-105.4,105.3-105.4   C163.4,788.8,210.5,836,210.5,894.2z"
       id="path37"
       style="fill:#ffffff" /></g></svg>