<?xml version="1.0" encoding="UTF-8" standalone="no"?>
<!-- Generator: Adobe Illustrator 19.2.1, SVG Export Plug-In . SVG Version: 6.00 Build 0)  -->

<svg
   xmlns:dc="http://purl.org/dc/elements/1.1/"
   xmlns:cc="http://creativecommons.org/ns#"
   xmlns:rdf="http://www.w3.org/1999/02/22-rdf-syntax-ns#"
   xmlns:svg="http://www.w3.org/2000/svg"
   xmlns="http://www.w3.org/2000/svg"
   xmlns:sodipodi="http://sodipodi.sourceforge.net/DTD/sodipodi-0.dtd"
   xmlns:inkscape="http://www.inkscape.org/namespaces/inkscape"
   version="1.1"
   id="Layer_1"
   x="0px"
   y="0px"
   viewBox="0 0 1417.8 1000"
   style="enable-background:new 0 0 1417.8 1000;"
   xml:space="preserve"
   inkscape:version="0.91 r13725"
   sodipodi:docname="timeline-blue.svg"><metadata
     id="metadata58"><rdf:RDF><cc:Work
         rdf:about=""><dc:format>image/svg+xml</dc:format><dc:type
           rdf:resource="http://purl.org/dc/dcmitype/StillImage" /></cc:Work></rdf:RDF></metadata><defs
     id="defs56" /><sodipodi:namedview
     pagecolor="#ffffff"
     bordercolor="#666666"
     borderopacity="1"
     objecttolerance="10"
     gridtolerance="10"
     guidetolerance="10"
     inkscape:pageopacity="0"
     inkscape:pageshadow="2"
     inkscape:window-width="2560"
     inkscape:window-height="1471"
     id="namedview54"
     showgrid="false"
     inkscape:zoom="0.944"
     inkscape:cx="463.75356"
     inkscape:cy="496.73649"
     inkscape:window-x="0"
     inkscape:window-y="55"
     inkscape:window-maximized="1"
     inkscape:current-layer="Layer_1" /><style
     type="text/css"
     id="style46">
	.st0{fill:#666666;}
</style><g
     id="g48"
     style="fill:#022c53;fill-opacity:1"><path
       class="st0"
       d="M318.3,634.2c-3.1,0-6.5-0.6-9.6-1.8c-9.4-4-15.5-13-15.5-23.3V399.2c0-13.9,11.2-25.1,25.1-25.1   c14,0,25.2,11.2,25.2,25.1v149l62-62c9.8-9.8,25.7-9.8,35.6,0c9.8,9.8,9.8,25.8,0,35.6L336.2,626.8   C331.3,631.6,324.8,634.2,318.3,634.2z M637.5,571.9c0-175.7-143.1-318.7-318.7-318.7C142.9,253.2,0,396.3,0,571.9   s142.9,318.9,318.7,318.9C494.4,890.8,637.5,747.7,637.5,571.9z M570.4,571.9c0,138.8-112.9,251.5-251.7,251.5   c-138.7,0-251.5-112.9-251.5-251.5s112.9-251.5,251.5-251.5S570.4,433.3,570.4,571.9z"
       id="path50"
       style="fill:#022c53;fill-opacity:1" /><path
       class="st0"
       d="M627,336.6c80,88.9,83.9,176.9,83.9,237.8c0,92.9-31.6,178.5-83.9,247.1V956c0,24.4,19.7,44.2,44.2,44.2h702.4   c24.4,0,44.2-19.8,44.2-44.2V44.5c0-24.4-19.8-44.2-44.2-44.2H671.1c-24.5,0-44.2,19.8-44.2,44.2v157.9 M1283.6,845.8H783.5v-71.6   h500.1V845.8z M1283.6,679.7H783.5v-71.6h500.1V679.7z M1283.6,513.5l-500.1,5.8v-71.6l500.1-5.8V513.5z M1283.6,353.3l-500.1,5.8   v-71.6l500.1-5.8V353.3z M1283.6,193.2L783.5,199v-71.7l500.1-5.8V193.2z"
       id="path52"
       style="fill:#022c53;fill-opacity:1" /></g></svg>